<svg xmlns="http://www.w3.org/2000/svg" width="1822" height="1646" fill="none" viewBox="0 0 1822 1646">
  <path fill="url(#a)" d="M229.5 863.566c-35.5 44-110 112.5-229.5 80 141.5 181.504 239 119.004 259.5 90.004s92.5 24 61.5 114c116.5-16.5 30.5-127.5 162-210.004 0 0-12 91.004 47 94.004-8-157.505 110.226-199.504 131-235.004 14.044-24-10-69.066 71-129.066-74-14-79.5 73.566-182.5 73.566s-122-16.5-122-16.5-134-49.5-185.5 59.5c60-7.395 115 20.5 115 20.5s-92 15-127.5 59Z"/>
  <path fill="#0C91DE" fill-rule="evenodd" d="M1439.5 687c-13.43 110.937-42.7 179.802-51.37 200.193-8.5 20-57.69 129.697-57.69 129.697-4.53 5.97 5.24-6.77 0 0-12.44 13.48-32.94 31.61-58.83 87.11-58.61 136 9.41 301.83 47.89 338.5-94 91.5-270 202.67-270 202.67s-111.5-69-174-120.5c-61-190-61-240.5 218.5-526.999 245-303 77-367.5 77-367.5s-2 29.5-110.5 60c-52.5-12.818-188.5 91-152.5 125-7.84 5.749-17.5.842-22-2-9.5-6-35.5.5-22 19-29 18-154.5-24.5-132-55.5 61.182 19.895 84 0 84 0S777 761 778 751.5c23.5 7.5 212.5-73.829 229-150.329 0-27.5-348.5-51-322.5 57.5 0 0-21 8-76-32 0 0-15.5-3-15.5 51 0 0-76-75.171-100-130.171 0 0 147.682 3.171 300.182-67.329 0 0-65.682-52.569-36.182-71.569 6.2 0 15.706 9.278 36.182-.001 55.476-25.139 162.123-73.466 313.318-86.101 179.5-15 355.5 114.5 333 364.5Zm-614-214c24.5 15 45.5 19.5 45.5 19.5l53.5-56-94 28.5-5 8Z" clip-rule="evenodd"/>
  <path fill="#0B6AA3" d="M1388.13 887.193c8.67-20.391 37.94-89.256 51.37-200.193 22.5-250-153.5-379.5-333-364.5-151.195 12.635-257.842 60.962-313.318 86.101l-.002.001c-20.475 9.278-29.98 0-36.18 0 163.583-79.313 215.017-142.622 267.32-216.878C1066.97 131.161 1117.04 56.558 1212.5 4c-11.06 21.37 9.92-14.917 0 0-22.8 34.294-81 130.232-81 187.724 0 0 56-86.724 339.5-151.224 0 0-239.5 179-268 247 0 0 163.68-58.5 295.18 54 0 0-139.68-3.829-86.18 76.171 24 35.717 50.48 53.926 86.18 70.5 60.25 27.974 130.6 60.887 137.82 182.395 0 0-136-120.895-147-11.895 0 0 100 174.329 40 252.829 3-22-69-81.5-126 10.5 0 0-36.95 47.987-72.56 94.89-105.85 226.29 29.56 267.11 48.06 284.61l43 24s-8 25.5-102 117c-38.48-36.67-144.79-266.61 10.94-425.61 0 0 49.19-109.697 57.69-129.697Z"/>
  <path fill="#2EE6FB" d="M875.5 1524.67C813 1473.17 666.575 1326 666.575 1326S604 1133.5 908 972c136.5-63 305.5-234.829 152.5-281.829 108.5-30.5 110.5-60 110.5-60s168 64.5-77 367.5C814.5 1284.17 814.5 1334.67 875.5 1524.67Z"/>
  <path fill="url(#b)" d="M1430 118s-50.37 26.5-41.87 41c260.5 94.5 389.37 212.5 389.37 212.5-30.53 521.42-378.24 906.26-399 930l43 24c275.48-281.93 418.46-843.25 398.5-984-85.5-117-364.5-223-390-223.5Z"/>
  <path fill="url(#c)" d="M374.43 690.082s-14.5 11.5-44 0c-25.5-48.5-65.5-300.5-56-340.5 52-114.5 640-367.5 825-323.5l-34 47.5c-291.5 4.301-677.5 217-749.5 290 0 0 20.5 197.5 58.5 326.5Z"/>
  <path fill="url(#d)" d="M569.5 1099.5c-35.5-10-69.5-44.5-91-63.5 43.341 98.33 131.08 224.41 188.075 290 0 0-10.575-31-.694-88.5 0 0-62.881-75.5-96.381-138Z"/>
  <defs>
    <linearGradient id="a" x1="1821.84" x2="-187.313" y1="-242.03" y2="500.579" gradientUnits="userSpaceOnUse">
      <stop offset=".08" stop-color="#0C92DE"/>
      <stop offset=".608" stop-color="#2EE5FB"/>
    </linearGradient>
    <linearGradient id="b" x1="1041.77" x2="1041.77" y1="21" y2="1317" gradientUnits="userSpaceOnUse">
      <stop stop-color="#1CBAEC"/>
      <stop offset="1" stop-color="#095A88"/>
    </linearGradient>
    <linearGradient id="c" x1="1041.77" x2="1041.77" y1="21" y2="1317" gradientUnits="userSpaceOnUse">
      <stop stop-color="#1CBAEC"/>
      <stop offset="1" stop-color="#095A88"/>
    </linearGradient>
    <linearGradient id="d" x1="1041.77" x2="1041.77" y1="21" y2="1317" gradientUnits="userSpaceOnUse">
      <stop stop-color="#1CBAEC"/>
      <stop offset="1" stop-color="#095A88"/>
    </linearGradient>
  </defs>
</svg>
